#tb 0: 2/25
#media_type 0: video
#codec_id 0: rawvideo
#dimensions 0: 320x192
#sar 0: 5/6
#tb 1: 1/16129
#media_type 1: audio
#codec_id 1: pcm_s16le
#sample_rate 1: 16129
#channel_layout 1: 4
#channel_layout_name 1: mono
0,          0,          0,        1,   184320, 0x8433f0f8
1,          0,          0,    14184,    28368, 0xaacc96a5
0,          1,          1,        1,   184320, 0xd0d480f7
0,          2,          2,        1,   184320, 0xaec85413
0,          3,          3,        1,   184320, 0x29d134dc
0,          4,          4,        1,   184320, 0xeac07175
0,          5,          5,        1,   184320, 0x21426b49
0,          6,          6,        1,   184320, 0xe500a37d
0,          7,          7,        1,   184320, 0x1d9cae21
0,          8,          8,        1,   184320, 0xda65309d
0,          9,          9,        1,   184320, 0xb64c331d
0,         10,         10,        1,   184320, 0xcb832741
1,      14184,      14184,    14184,    28368, 0x6d1099bd
0,         11,         11,        1,   184320, 0xe573b565
0,         12,         12,        1,   184320, 0xa40c92d1
0,         13,         13,        1,   184320, 0x6d04ea3f
0,         14,         14,        1,   184320, 0xc438ae56
0,         15,         15,        1,   184320, 0xc6405523
0,         16,         16,        1,   184320, 0xaefef0b3
0,         17,         17,        1,   184320, 0x3e4526c6
0,         18,         18,        1,   184320, 0x2b164323
0,         19,         19,        1,   184320, 0x89b22193
0,         20,         20,        1,   184320, 0x3b73611b
0,         21,         21,        1,   184320, 0x42b33583
1,      28368,      28368,    14184,    28368, 0x93033ae1
0,         22,         22,        1,   184320, 0x43e79dff
0,         23,         23,        1,   184320, 0xe389a377
0,         24,         24,        1,   184320, 0x09cb65f0
0,         25,         25,        1,   184320, 0x64b27755
0,         26,         26,        1,   184320, 0xdd25d6c6
0,         27,         27,        1,   184320, 0x082a80c9
0,         28,         28,        1,   184320, 0x41a8d7f4
0,         29,         29,        1,   184320, 0x6227d8d4
0,         30,         30,        1,   184320, 0x54975910
0,         31,         31,        1,   184320, 0xf4857db9
0,         32,         32,        1,   184320, 0x82d18161
1,      42552,      42552,     5835,    11670, 0x04aa0b1e
0,         33,         33,        1,   184320, 0x06d93bd0
0,         34,         34,        1,   184320, 0xa4304c00
0,         35,         35,        1,   184320, 0x5f77d9cd
0,         36,         36,        1,   184320, 0x95cb84e9
0,         37,         37,        1,   184320, 0x7c979475
